{"title":"This.Is.The.End.2013.TS.XViD-26k","uid":8751133,"size":1473416580,"categoryP":"video","categoryS":"movies","magnet":"?xt=urn:btih:09d7ce7a401ef3d9abf498b64fddd96e2236e581&amp;dn=This.Is.The.End.2013.TS.XViD-26k&amp;tr=udp%3A%2F%2Ftracker.openbittorrent.com%3A80&amp;tr=udp%3A%2F%2Fopen.demonii.com%3A1337&amp;tr=udp%3A%2F%2Ftracker.coppersurfer.tk%3A6969&amp;tr=udp%3A%2F%2Fexodus.desync.com%3A6969","seeders":34,"leechers":2,"uploader":"xxxlavalxxx","files":-1,"time":1375034272,"description":" &lt;a href=&quot;\nhttp://www.imdb.com/title/tt1245492/&quot; rel=&quot;nofollow&quot; target=&quot;_NEW&quot;&gt;\nhttp://www.imdb.com/title/tt1245492/&lt;/a&gt;\n\n\nWhile attending a party at James Franco's house, Seth Rogen, Jay Baruchel and many other celebrities are faced with the apocalypse. \n\n\n\nDirectors:\n Evan Goldberg, Seth Rogen \n\nWriters:\n Seth Rogen (screenplay), Evan Goldberg (screenplay)\n\nStars:\n James Franco, Jonah Hill, Seth Rogen\n\nGenres:\n  Comedy |  Fantasy \n\nCountry:\n USA \n\nLanguage:\n English \n\n\n\n\n\n Sources - VIDEO: A Friend  ..... thanks .... :P\n                 AUDIO: A Friend   ..... thanks .... :P\n\n\n          \n\n\n Format                                   : AVI\n Format/Info                              : Audio Video Interleave\n File size                                : 1.37 GiB\n Duration                                 : 1h 40mn\n Overall bit rate                         : 1 950 Kbps\n Writing library                          : VirtualDub build 32839/release\n\n Video\n ID                                       : 0\n Format                                   : MPEG-4 Visual\n Format profile                           : Advanced Simple@L5\n Format settings, BVOP                    : 2\n Format settings, QPel                    : No\n Format settings, GMC                     : No warppoints\n Format settings, Matrix                  : Default (H.263)\n Muxing mode                              : Packed bitstream\n Codec ID                                 : XVID\n Codec ID/Hint                            : XviD\n Duration                                 : 1h 40mn\n Bit rate                                 : 1 810 Kbps\n Width                                    : 720 pixels\n Height                                   : 384 pixels\n Display aspect ratio                     : 1.85:1\n Frame rate                               : 29.970 fps\n Color space                              : YUV\n Chroma subsampling                       : 4:2:0\n Bit depth                                : 8 bits\n Scan type                                : Progressive\n Compression mode                         : Lossy\n Bits/(Pixel*Frame)                       : 0.218\n Stream size                              : 1.27 GiB (93%)\n Writing library                          : XviD 64\n\n Audio\n ID                                       : 1\n Format                                   : MPEG Audio\n Format version                           : Version 1\n Format profile                           : Layer 3\n Codec ID                                 : 55\n Codec ID/Hint                            : MP3\n Duration                                 : 1h 40mn\n Bit rate mode                            : Constant\n Bit rate                                 : 128 Kbps\n Channel(s)                               : 2 channels\n Sampling rate                            : 44.1 KHz\n Compression mode                         : Lossy\n Stream size                              : 92.2 MiB (7%)\n Alignment                                : Split accross interleaves\n Interleave, duration                     : 33 ms (1.00 video frame)\n\n\n\n\n\n\n\n\n\n Notes -\n\n Took the vobs and did what we do.. there is a lil bit of cam movement but not much and\n noticed after it was doen didnt perspectives out top left corner enuf so ther is a slight\n border in top left corner sry for that.. then synced and muxed AFriends LiNE audio to it\n (thanks for sync job bro.. u know who u are) and cleane it up a lil bit and boosted the db's\n as it was a touch quiet.. enjoy :)\n\n\n\n\n\n\nscreens\n\n\n    &lt;a href=&quot;\thttp://addpix.net/viewer.php?file=08733464493523361414.jpg&quot; rel=&quot;nofollow&quot; target=&quot;_NEW&quot;&gt;\thttp://addpix.net/viewer.php?file=08733464493523361414.jpg&lt;/a&gt;\n    &lt;a href=&quot;\thttp://addpix.net/viewer.php?file=23812493477848997339.jpg&quot; rel=&quot;nofollow&quot; target=&quot;_NEW&quot;&gt;\thttp://addpix.net/viewer.php?file=23812493477848997339.jpg&lt;/a&gt;\n    &lt;a href=&quot;\thttp://addpix.net/viewer.php?file=02035328671778109727.jpg&quot; rel=&quot;nofollow&quot; target=&quot;_NEW&quot;&gt;\thttp://addpix.net/viewer.php?file=02035328671778109727.jpg&lt;/a&gt;\n    &lt;a href=&quot;\thttp://addpix.net/viewer.php?file=40331613314859984115.jpg&quot; rel=&quot;nofollow&quot; target=&quot;_NEW&quot;&gt;\thttp://addpix.net/viewer.php?file=40331613314859984115.jpg&lt;/a&gt;","torrent":{"xt":"urn:btih:09d7ce7a401ef3d9abf498b64fddd96e2236e581","amp;dn":"This.Is.The.End.2013.TS.XViD-26k","amp;tr":["udp%3A%2F%2Ftracker.openbittorrent.com%3A80","udp%3A%2F%2Fopen.demonii.com%3A1337","udp%3A%2F%2Ftracker.coppersurfer.tk%3A6969","udp%3A%2F%2Fexodus.desync.com%3A6969"],"infoHash":"09d7ce7a401ef3d9abf498b64fddd96e2236e581","infoHashBuffer":{"type":"Buffer","data":[9,215,206,122,64,30,243,217,171,244,152,182,79,221,217,110,34,54,229,129]},"announce":[],"urlList":[]}}